<?xml version="1.0" encoding="UTF-8" standalone="no"?>
<!DOCTYPE svg PUBLIC "-//W3C//DTD SVG 1.1//EN" "http://www.w3.org/Graphics/SVG/1.1/DTD/svg11.dtd">
<svg width="100%" height="100%" viewBox="0 0 200 60" version="1.1" xmlns="http://www.w3.org/2000/svg" xmlns:xlink="http://www.w3.org/1999/xlink" xml:space="preserve" xmlns:serif="http://www.serif.com/" style="fill-rule:evenodd;clip-rule:evenodd;stroke-linejoin:round;stroke-miterlimit:2;">
    <g transform="matrix(1.186556,0,0,1.186556,-11.840931,-5.596678)">
        <g transform="matrix(1,0,0,1,-13,5.909107)">
            <path d="M30.041,13.427C32.926,13.427 35.141,13.935 36.686,14.949C38.231,15.964 39.004,17.625 39.004,19.933C39.004,22.26 38.222,23.94 36.658,24.973C35.095,26.006 32.861,26.522 29.957,26.522L28.589,26.522L28.589,33L24.234,33L24.234,13.93C25.183,13.744 26.188,13.614 27.249,13.539C28.31,13.465 29.241,13.427 30.041,13.427ZM30.32,17.141C30.004,17.141 29.692,17.15 29.385,17.169C29.078,17.187 28.813,17.206 28.589,17.225L28.589,22.809L29.957,22.809C31.465,22.809 32.601,22.604 33.364,22.195C34.127,21.785 34.509,21.022 34.509,19.905C34.509,19.365 34.411,18.919 34.215,18.565C34.02,18.211 33.741,17.927 33.378,17.713C33.015,17.499 32.573,17.35 32.052,17.267C31.53,17.183 30.953,17.141 30.32,17.141Z"/>
            <path d="M50.786,21.999C50.414,21.906 49.977,21.808 49.474,21.706C48.972,21.604 48.432,21.552 47.855,21.552C47.594,21.552 47.282,21.576 46.919,21.622C46.556,21.669 46.282,21.72 46.096,21.776L46.096,33L41.936,33L41.936,19.095C42.68,18.835 43.56,18.588 44.574,18.355C45.589,18.123 46.719,18.006 47.966,18.006C48.19,18.006 48.46,18.02 48.776,18.048C49.093,18.076 49.409,18.113 49.725,18.16C50.042,18.207 50.358,18.262 50.675,18.328C50.991,18.393 51.261,18.472 51.484,18.565L50.786,21.999Z"/>
            <rect x="53.718" y="18.314" width="4.16" height="14.686"/>
            <path d="M58.269,14.07C58.269,14.833 58.023,15.433 57.529,15.871C57.036,16.308 56.454,16.527 55.784,16.527C55.114,16.527 54.533,16.308 54.039,15.871C53.546,15.433 53.299,14.833 53.299,14.07C53.299,13.306 53.546,12.706 54.039,12.269C54.533,11.831 55.114,11.613 55.784,11.613C56.454,11.613 57.036,11.831 57.529,12.269C58.023,12.706 58.269,13.306 58.269,14.07Z" style="fill:rgb(242,101,34);"/>
            <path d="M61.787,18.816C62.495,18.611 63.407,18.421 64.524,18.244C65.64,18.067 66.813,17.979 68.042,17.979C69.289,17.979 70.326,18.141 71.155,18.467C71.983,18.793 72.639,19.254 73.123,19.849C73.607,20.445 73.952,21.152 74.156,21.971C74.361,22.79 74.463,23.702 74.463,24.707L74.463,33L70.303,33L70.303,25.21C70.303,23.87 70.126,22.921 69.773,22.362C69.419,21.804 68.758,21.524 67.79,21.524C67.492,21.524 67.176,21.538 66.841,21.566C66.506,21.594 66.208,21.627 65.948,21.664L65.948,33L61.787,33L61.787,18.816Z"/>
            <path d="M78.093,14.656L82.253,13.986L82.253,18.314L87.251,18.314L87.251,21.776L82.253,21.776L82.253,26.941C82.253,27.816 82.407,28.514 82.714,29.035C83.021,29.556 83.64,29.817 84.571,29.817C85.018,29.817 85.478,29.775 85.953,29.691C86.428,29.608 86.86,29.491 87.251,29.342L87.838,32.581C87.335,32.786 86.777,32.963 86.162,33.112C85.548,33.261 84.794,33.335 83.901,33.335C82.765,33.335 81.825,33.181 81.081,32.874C80.336,32.567 79.74,32.139 79.294,31.59C78.847,31.041 78.535,30.375 78.358,29.594C78.182,28.812 78.093,27.946 78.093,26.997L78.093,14.656Z"/>
            <path d="M111.961,13.651L111.961,17.364L106.126,17.364L106.126,33L101.77,33L101.77,17.364L95.935,17.364L95.935,13.651L111.961,13.651Z"/>
            <path d="M114.474,33L114.474,12.003L118.634,11.333L118.634,18.369C118.914,18.276 119.272,18.188 119.709,18.104C120.147,18.02 120.57,17.979 120.98,17.979C122.171,17.979 123.162,18.141 123.953,18.467C124.744,18.793 125.377,19.254 125.852,19.849C126.327,20.445 126.662,21.152 126.857,21.971C127.052,22.79 127.15,23.702 127.15,24.707L127.15,33L122.99,33L122.99,25.21C122.99,23.87 122.818,22.921 122.473,22.362C122.129,21.804 121.492,21.524 120.561,21.524C120.189,21.524 119.84,21.557 119.514,21.622C119.188,21.687 118.895,21.757 118.634,21.832L118.634,33L114.474,33Z"/>
            <rect x="130.92" y="18.314" width="4.16" height="14.686"/>
            <path d="M135.471,14.07C135.471,14.833 135.224,15.433 134.731,15.871C134.237,16.308 133.656,16.527 132.986,16.527C132.316,16.527 131.734,16.308 131.241,15.871C130.747,15.433 130.501,14.833 130.501,14.07C130.501,13.306 130.747,12.706 131.241,12.269C131.734,11.831 132.316,11.613 132.986,11.613C133.656,11.613 134.237,11.831 134.731,12.269C135.224,12.706 135.471,13.306 135.471,14.07Z" style="fill:rgb(242,101,34);"/>
            <path d="M143.205,30.012C143.968,30.012 144.508,29.938 144.824,29.789C145.141,29.64 145.299,29.352 145.299,28.924C145.299,28.588 145.094,28.295 144.685,28.044C144.275,27.793 143.651,27.509 142.814,27.192C142.162,26.95 141.571,26.699 141.041,26.439C140.51,26.178 140.059,25.866 139.687,25.503C139.314,25.14 139.026,24.707 138.821,24.205C138.616,23.702 138.514,23.097 138.514,22.39C138.514,21.013 139.026,19.924 140.05,19.123C141.073,18.323 142.479,17.923 144.266,17.923C145.159,17.923 146.015,18.002 146.834,18.16C147.653,18.318 148.305,18.49 148.789,18.677L148.063,21.915C147.579,21.748 147.053,21.599 146.485,21.469C145.918,21.338 145.28,21.273 144.573,21.273C143.27,21.273 142.618,21.636 142.618,22.362C142.618,22.53 142.646,22.679 142.702,22.809C142.758,22.939 142.87,23.065 143.037,23.186C143.205,23.307 143.433,23.437 143.721,23.576C144.01,23.715 144.377,23.867 144.824,24.033C145.736,24.367 146.49,24.695 147.086,25.019C147.681,25.343 148.151,25.696 148.496,26.078C148.84,26.46 149.082,26.885 149.222,27.351C149.361,27.817 149.431,28.357 149.431,28.972C149.431,30.427 148.887,31.527 147.798,32.272C146.709,33.018 145.169,33.391 143.177,33.391C141.874,33.391 140.79,33.279 139.924,33.056C139.058,32.832 138.458,32.646 138.123,32.497L138.821,29.119C139.528,29.398 140.254,29.617 140.999,29.775C141.744,29.933 142.479,30.012 143.205,30.012Z"/>
            <path d="M156.802,18.649C156.802,20.156 156.746,21.562 156.635,22.865C156.523,24.168 156.374,25.489 156.188,26.829L153.005,26.829C152.819,25.489 152.665,24.168 152.544,22.865C152.423,21.562 152.363,20.156 152.363,18.649L152.363,13.651L156.802,13.651L156.802,18.649Z"/>
            <path d="M157.165,30.794C157.165,31.613 156.9,32.246 156.369,32.693C155.839,33.14 155.239,33.363 154.569,33.363C153.898,33.363 153.298,33.14 152.768,32.693C152.237,32.246 151.972,31.613 151.972,30.794C151.972,29.975 152.237,29.342 152.768,28.896C153.298,28.449 153.898,28.226 154.569,28.226C155.239,28.226 155.839,28.449 156.369,28.896C156.9,29.342 157.165,29.975 157.165,30.794Z"/>
        </g>
        <g>
            <g transform="matrix(1.55,0,0,1.55,147.829868,11.4)">
                <path d="M7,2L17,2L17,8L19,8L19,13L16.5,13L13,17L11,17L7.5,13L5,13L5,8L7,8L7,2ZM10,22L2,22L2,20L10,20C10.549,20 11,19.549 11,19L11,18L13,18L13,19C13,20.646 11.646,22 10,22" style="fill:rgb(242,101,34);"/>
            </g>
            <g transform="matrix(28.742391,0,0,1,-4185.155469,0)">
                <rect x="146" y="42.4" width="4.93" height="3.1" style="fill:rgb(242,101,34);"/>
            </g>
        </g>
    </g>
</svg>
