<?xml version="1.0" encoding="UTF-8" standalone="no"?>
<!DOCTYPE svg PUBLIC "-//W3C//DTD SVG 1.1//EN" "http://www.w3.org/Graphics/SVG/1.1/DTD/svg11.dtd">
<svg width="100%" height="100%" viewBox="0 0 27 31" version="1.1" xmlns="http://www.w3.org/2000/svg" xmlns:xlink="http://www.w3.org/1999/xlink" xml:space="preserve" xmlns:serif="http://www.serif.com/" style="fill-rule:evenodd;clip-rule:evenodd;stroke-linejoin:round;stroke-miterlimit:2;">
    <g transform="matrix(1,0,0,1,-86.825,-14.5)">
        <g transform="matrix(1,0,0,1,-64.104868,0)">
            <g transform="matrix(1.55,0,0,1.55,147.829868,11.4)">
                <path d="M7,2L17,2L17,8L19,8L19,13L16.5,13L13,17L11,17L7.5,13L5,13L5,8L7,8L7,2ZM10,22L2,22L2,20L10,20C10.549,20 11,19.549 11,19L11,18L13,18L13,19C13,20.646 11.646,22 10,22" style="fill:rgb(242,101,34);"/>
            </g>
        </g>
    </g>
</svg>
